<?xml version="1.0" encoding="UTF-8" standalone="no"?>
<svg width="800" height="500" xmlns="http://www.w3.org/2000/svg">
  <rect width="800" height="500" fill="#1e293b"/>
  <text x="400" y="50" font-family="Arial" font-size="24" fill="white" text-anchor="middle">Accounts</text>
  
  <!-- Account Cards -->
  <rect x="50" y="80" width="340" height="180" rx="8" fill="#334155"/>
  <rect x="50" y="80" width="10" height="180" rx="0" fill="#3b82f6"/>
  <text x="70" y="110" font-family="Arial" font-size="18" fill="white">Checking Account</text>
  <text x="70" y="140" font-family="Arial" font-size="24" fill="#38bdf8">$4,250.75</text>
  <text x="70" y="170" font-family="Arial" font-size="14" fill="white">Bank of America</text>
  <text x="70" y="195" font-family="Arial" font-size="14" fill="#a3e635">↑ $2,150 this month</text>
  <rect x="300" y="90" width="30" height="30" rx="4" fill="#3b82f6"/>
  <rect x="300" y="130" width="30" height="30" rx="4" fill="#ef4444"/>
  
  <rect x="410" y="80" width="340" height="180" rx="8" fill="#334155"/>
  <rect x="410" y="80" width="10" height="180" rx="0" fill="#a855f7"/>
  <text x="430" y="110" font-family="Arial" font-size="18" fill="white">Savings Account</text>
  <text x="430" y="140" font-family="Arial" font-size="24" fill="#38bdf8">$25,000.00</text>
  <text x="430" y="170" font-family="Arial" font-size="14" fill="white">Chase Bank</text>
  <text x="430" y="195" font-family="Arial" font-size="14" fill="#a3e635">↑ $500 this month</text>
  <rect x="660" y="90" width="30" height="30" rx="4" fill="#3b82f6"/>
  <rect x="660" y="130" width="30" height="30" rx="4" fill="#ef4444"/>
  
  <rect x="50" y="280" width="340" height="180" rx="8" fill="#334155"/>
  <rect x="50" y="280" width="10" height="180" rx="0" fill="#ef4444"/>
  <text x="70" y="310" font-family="Arial" font-size="18" fill="white">Credit Card</text>
  <text x="70" y="340" font-family="Arial" font-size="24" fill="#ef4444">-$1,245.63</text>
  <text x="70" y="370" font-family="Arial" font-size="14" fill="white">Visa - Capital One</text>
  <text x="70" y="395" font-family="Arial" font-size="14" fill="#ef4444">Due: 08/15/2025</text>
  <rect x="300" y="290" width="30" height="30" rx="4" fill="#3b82f6"/>
  <rect x="300" y="330" width="30" height="30" rx="4" fill="#ef4444"/>
  
  <rect x="410" y="280" width="340" height="180" rx="8" fill="#334155"/>
  <rect x="410" y="280" width="10" height="180" rx="0" fill="#22c55e"/>
  <text x="430" y="310" font-family="Arial" font-size="18" fill="white">Investment Account</text>
  <text x="430" y="340" font-family="Arial" font-size="24" fill="#38bdf8">$78,450.00</text>
  <text x="430" y="370" font-family="Arial" font-size="14" fill="white">Fidelity</text>
  <text x="430" y="395" font-family="Arial" font-size="14" fill="#a3e635">↑ 12.5% YTD</text>
  <rect x="660" y="290" width="30" height="30" rx="4" fill="#3b82f6"/>
  <rect x="660" y="330" width="30" height="30" rx="4" fill="#ef4444"/>
  
  <!-- Add Account Button -->
  <rect x="50" y="480" width="150" height="40" rx="8" fill="#3b82f6" transform="translate(0, -30)"/>
  <text x="125" y="495" font-family="Arial" font-size="14" fill="white" text-anchor="middle" transform="translate(0, -30)">Add New Account</text>
  
  <!-- Net Worth -->
  <text x="650" y="495" font-family="Arial" font-size="16" fill="white" text-anchor="end" transform="translate(0, -30)">Total Balance: $106,455.12</text>
</svg>
