<?xml version="1.0" encoding="UTF-8" standalone="no"?>
<svg width="800" height="500" xmlns="http://www.w3.org/2000/svg">
  <rect width="800" height="500" fill="#1e293b"/>
  <text x="400" y="50" font-family="Arial" font-size="24" fill="white" text-anchor="middle">Dashboard</text>
  
  <!-- Net Worth Card -->
  <rect x="50" y="80" width="340" height="180" rx="8" fill="#334155"/>
  <text x="70" y="110" font-family="Arial" font-size="16" fill="white">Net Worth</text>
  <text x="70" y="140" font-family="Arial" font-size="24" fill="#38bdf8">$152,450</text>
  <path d="M70,160 L390,160" stroke="#475569" stroke-width="1"/>
  <path d="M70,180 L120,170 L170,190 L220,160 L270,180 L320,150 L370,170" stroke="#38bdf8" stroke-width="2" fill="none"/>
  <text x="70" y="220" font-family="Arial" font-size="14" fill="#a3e635">↑ 12% from last month</text>
  
  <!-- Cash Flow Card -->
  <rect x="410" y="80" width="340" height="180" rx="8" fill="#334155"/>
  <text x="430" y="110" font-family="Arial" font-size="16" fill="white">Monthly Cash Flow</text>
  <text x="430" y="140" font-family="Arial" font-size="24" fill="#a3e635">+$2,340</text>
  <rect x="430" y="170" width="150" height="20" rx="4" fill="#a3e635"/>
  <rect x="430" y="200" width="120" height="20" rx="4" fill="#ef4444"/>
  <text x="590" y="185" font-family="Arial" font-size="14" fill="white">Income: $5,200</text>
  <text x="590" y="215" font-family="Arial" font-size="14" fill="white">Expenses: $2,860</text>
  
  <!-- Budget Card -->
  <rect x="50" y="280" width="340" height="180" rx="8" fill="#334155"/>
  <text x="70" y="310" font-family="Arial" font-size="16" fill="white">Budget Overview</text>
  <circle cx="170" cy="370" r="60" fill="none" stroke="#475569" stroke-width="20"/>
  <circle cx="170" cy="370" r="60" fill="none" stroke="#38bdf8" stroke-width="20" stroke-dasharray="270 110"/>
  <text x="170" y="370" font-family="Arial" font-size="16" fill="white" text-anchor="middle" dominant-baseline="middle">72%</text>
  <text x="70" y="440" font-family="Arial" font-size="14" fill="white">Housing: 30%</text>
  <text x="200" y="440" font-family="Arial" font-size="14" fill="white">Food: 15%</text>
  <text x="300" y="440" font-family="Arial" font-size="14" fill="white">Other: 27%</text>
  
  <!-- Recent Transactions -->
  <rect x="410" y="280" width="340" height="180" rx="8" fill="#334155"/>
  <text x="430" y="310" font-family="Arial" font-size="16" fill="white">Recent Transactions</text>
  <path d="M430,330 L730,330" stroke="#475569" stroke-width="1"/>
  <text x="430" y="350" font-family="Arial" font-size="14" fill="white">Grocery Store</text>
  <text x="700" y="350" font-family="Arial" font-size="14" fill="#ef4444" text-anchor="end">-$85.42</text>
  <path d="M430,360 L730,360" stroke="#475569" stroke-width="1"/>
  <text x="430" y="380" font-family="Arial" font-size="14" fill="white">Salary Deposit</text>
  <text x="700" y="380" font-family="Arial" font-size="14" fill="#a3e635" text-anchor="end">+$2,600.00</text>
  <path d="M430,390 L730,390" stroke="#475569" stroke-width="1"/>
  <text x="430" y="410" font-family="Arial" font-size="14" fill="white">Electric Bill</text>
  <text x="700" y="410" font-family="Arial" font-size="14" fill="#ef4444" text-anchor="end">-$124.56</text>
  <path d="M430,420 L730,420" stroke="#475569" stroke-width="1"/>
  <text x="430" y="440" font-family="Arial" font-size="14" fill="white">Restaurant</text>
  <text x="700" y="440" font-family="Arial" font-size="14" fill="#ef4444" text-anchor="end">-$58.25</text>
</svg>
