<?xml version="1.0" encoding="UTF-8" standalone="no"?>
<svg width="800" height="500" xmlns="http://www.w3.org/2000/svg">
  <rect width="800" height="500" fill="#1e293b"/>
  <text x="400" y="50" font-family="Arial" font-size="24" fill="white" text-anchor="middle">Transactions</text>
  
  <!-- Transactions Table -->
  <rect x="50" y="80" width="700" height="320" rx="8" fill="#334155"/>
  
  <!-- Table Header -->
  <rect x="50" y="80" width="700" height="40" rx="8" fill="#475569"/>
  <text x="70" y="105" font-family="Arial" font-size="14" fill="white">Date</text>
  <text x="170" y="105" font-family="Arial" font-size="14" fill="white">Description</text>
  <text x="370" y="105" font-family="Arial" font-size="14" fill="white">Category</text>
  <text x="470" y="105" font-family="Arial" font-size="14" fill="white">Account</text>
  <text x="570" y="105" font-family="Arial" font-size="14" fill="white">Amount</text>
  <text x="670" y="105" font-family="Arial" font-size="14" fill="white">Actions</text>
  
  <!-- Table Rows -->
  <rect x="50" y="120" width="700" height="40" fill="#334155"/>
  <text x="70" y="145" font-family="Arial" font-size="14" fill="white">07/25/2025</text>
  <text x="170" y="145" font-family="Arial" font-size="14" fill="white">Salary Deposit</text>
  <text x="370" y="145" font-family="Arial" font-size="14" fill="white">Income</text>
  <text x="470" y="145" font-family="Arial" font-size="14" fill="white">Checking</text>
  <text x="570" y="145" font-family="Arial" font-size="14" fill="#a3e635">+$2,600.00</text>
  <rect x="650" y="130" width="20" height="20" rx="4" fill="#3b82f6"/>
  <rect x="680" y="130" width="20" height="20" rx="4" fill="#ef4444"/>
  
  <rect x="50" y="160" width="700" height="40" fill="#1e293b"/>
  <text x="70" y="185" font-family="Arial" font-size="14" fill="white">07/24/2025</text>
  <text x="170" y="185" font-family="Arial" font-size="14" fill="white">Grocery Store</text>
  <text x="370" y="185" font-family="Arial" font-size="14" fill="white">Food</text>
  <text x="470" y="185" font-family="Arial" font-size="14" fill="white">Credit Card</text>
  <text x="570" y="185" font-family="Arial" font-size="14" fill="#ef4444">-$85.42</text>
  <rect x="650" y="170" width="20" height="20" rx="4" fill="#3b82f6"/>
  <rect x="680" y="170" width="20" height="20" rx="4" fill="#ef4444"/>
  
  <rect x="50" y="200" width="700" height="40" fill="#334155"/>
  <text x="70" y="225" font-family="Arial" font-size="14" fill="white">07/23/2025</text>
  <text x="170" y="225" font-family="Arial" font-size="14" fill="white">Electric Bill</text>
  <text x="370" y="225" font-family="Arial" font-size="14" fill="white">Utilities</text>
  <text x="470" y="225" font-family="Arial" font-size="14" fill="white">Checking</text>
  <text x="570" y="225" font-family="Arial" font-size="14" fill="#ef4444">-$124.56</text>
  <rect x="650" y="210" width="20" height="20" rx="4" fill="#3b82f6"/>
  <rect x="680" y="210" width="20" height="20" rx="4" fill="#ef4444"/>
  
  <rect x="50" y="240" width="700" height="40" fill="#1e293b"/>
  <text x="70" y="265" font-family="Arial" font-size="14" fill="white">07/22/2025</text>
  <text x="170" y="265" font-family="Arial" font-size="14" fill="white">Restaurant</text>
  <text x="370" y="265" font-family="Arial" font-size="14" fill="white">Food</text>
  <text x="470" y="265" font-family="Arial" font-size="14" fill="white">Credit Card</text>
  <text x="570" y="265" font-family="Arial" font-size="14" fill="#ef4444">-$58.25</text>
  <rect x="650" y="250" width="20" height="20" rx="4" fill="#3b82f6"/>
  <rect x="680" y="250" width="20" height="20" rx="4" fill="#ef4444"/>
  
  <rect x="50" y="280" width="700" height="40" fill="#334155"/>
  <text x="70" y="305" font-family="Arial" font-size="14" fill="white">07/21/2025</text>
  <text x="170" y="305" font-family="Arial" font-size="14" fill="white">Gas Station</text>
  <text x="370" y="305" font-family="Arial" font-size="14" fill="white">Transportation</text>
  <text x="470" y="305" font-family="Arial" font-size="14" fill="white">Credit Card</text>
  <text x="570" y="305" font-family="Arial" font-size="14" fill="#ef4444">-$45.30</text>
  <rect x="650" y="290" width="20" height="20" rx="4" fill="#3b82f6"/>
  <rect x="680" y="290" width="20" height="20" rx="4" fill="#ef4444"/>
  
  <rect x="50" y="320" width="700" height="40" fill="#1e293b"/>
  <text x="70" y="345" font-family="Arial" font-size="14" fill="white">07/20/2025</text>
  <text x="170" y="345" font-family="Arial" font-size="14" fill="white">Internet Bill</text>
  <text x="370" y="345" font-family="Arial" font-size="14" fill="white">Utilities</text>
  <text x="470" y="345" font-family="Arial" font-size="14" fill="white">Checking</text>
  <text x="570" y="345" font-family="Arial" font-size="14" fill="#ef4444">-$79.99</text>
  <rect x="650" y="330" width="20" height="20" rx="4" fill="#3b82f6"/>
  <rect x="680" y="330" width="20" height="20" rx="4" fill="#ef4444"/>
  
  <!-- Add Transaction Button -->
  <rect x="50" y="420" width="180" height="40" rx="8" fill="#3b82f6"/>
  <text x="140" y="445" font-family="Arial" font-size="14" fill="white" text-anchor="middle">Add New Transaction</text>
  
  <!-- Filter Options -->
  <rect x="250" y="420" width="100" height="40" rx="8" fill="#475569"/>
  <text x="300" y="445" font-family="Arial" font-size="14" fill="white" text-anchor="middle">Filter</text>
  
  <rect x="370" y="420" width="100" height="40" rx="8" fill="#475569"/>
  <text x="420" y="445" font-family="Arial" font-size="14" fill="white" text-anchor="middle">Sort</text>
  
  <!-- Balance Summary -->
  <text x="650" y="445" font-family="Arial" font-size="16" fill="white" text-anchor="end">Monthly Balance: +$2,206.48</text>
</svg>
